# xmcd CD database file generated by OrangeCD 6.5
#
# Track frame offsets:
#	150
#	22782
#	45217
#	72412
#	92817
#	110147
#	129750
#	149132
#	163127
#
# Disc length: 2397 seconds
#
# Revision: 2
# Processed by: cddbd v1.5.2PL0 Copyright (c) Steve Scherf et al.
# Submitted via: OrangeCD 6.5
#
DISCID=78095b09
DTITLE=James Cotton - Live from Chicago - Mr. superharp himself
DYEAR=1986
DGENRE=Blues
TTITLE0=Here I am ( Knockin' at your door )
TTITLE1=Part time love
TTITLE2=Just to be with you
TTITLE3=Hard headed
TTITLE4=When it rains it pours
TTITLE5=Cross your heart
TTITLE6=Come back, baby
TTITLE7=Born in Chicago
TTITLE8=The midnight creeper
EXTD=
EXTT0=
EXTT1=
EXTT2=
EXTT3=
EXTT4=
EXTT5=
EXTT6=
EXTT7=
EXTT8=
PLAYORDER=
